<mxfile host="65bd71144e">
    <diagram id="gJezk_OWk_-26XYgUe7z" name="Page-1">
        <mxGraphModel dx="855" dy="637" grid="1" gridSize="10" guides="1" tooltips="1" connect="1" arrows="1" fold="1" page="1" pageScale="1" pageWidth="827" pageHeight="1169" math="0" shadow="0">
            <root>
                <mxCell id="0"/>
                <mxCell id="1" parent="0"/>
                <mxCell id="2" value="&lt;font style=&quot;font-size: 96px&quot; face=&quot;Courier New&quot;&gt;egg, bacon&lt;/font&gt;" style="text;html=1;strokeColor=none;fillColor=none;align=center;verticalAlign=middle;whiteSpace=wrap;rounded=0;" parent="1" vertex="1">
                    <mxGeometry x="147" y="30" width="623" height="120" as="geometry"/>
                </mxCell>
                <mxCell id="3" value="&lt;font style=&quot;font-size: 20px&quot; face=&quot;Comic Sans MS&quot; color=&quot;#3333ff&quot;&gt;0&lt;/font&gt;" style="text;html=1;strokeColor=none;fillColor=none;align=center;verticalAlign=middle;whiteSpace=wrap;rounded=0;fontFamily=Courier New;fontSize=48;" parent="1" vertex="1">
                    <mxGeometry x="190" y="140" width="24" height="30" as="geometry"/>
                </mxCell>
                <mxCell id="5" value="&lt;font style=&quot;font-size: 20px&quot; face=&quot;Comic Sans MS&quot;&gt;-10&lt;/font&gt;" style="text;html=1;strokeColor=none;fillColor=none;align=center;verticalAlign=middle;whiteSpace=wrap;rounded=0;fontFamily=Courier New;fontSize=48;fontColor=#009900;" parent="1" vertex="1">
                    <mxGeometry x="181" y="180" width="24" height="30" as="geometry"/>
                </mxCell>
                <mxCell id="6" value="&lt;font style=&quot;font-size: 20px&quot; face=&quot;Comic Sans MS&quot;&gt;-9&lt;/font&gt;" style="text;html=1;strokeColor=none;fillColor=none;align=center;verticalAlign=middle;whiteSpace=wrap;rounded=0;fontFamily=Courier New;fontSize=48;fontColor=#009900;" parent="1" vertex="1">
                    <mxGeometry x="236" y="180" width="24" height="30" as="geometry"/>
                </mxCell>
                <mxCell id="7" value="&lt;font style=&quot;font-size: 20px&quot; face=&quot;Comic Sans MS&quot;&gt;-8&lt;/font&gt;" style="text;html=1;strokeColor=none;fillColor=none;align=center;verticalAlign=middle;whiteSpace=wrap;rounded=0;fontFamily=Courier New;fontSize=48;fontColor=#009900;" parent="1" vertex="1">
                    <mxGeometry x="296" y="180" width="24" height="30" as="geometry"/>
                </mxCell>
                <mxCell id="8" value="&lt;font style=&quot;font-size: 20px&quot; face=&quot;Comic Sans MS&quot;&gt;-7&lt;/font&gt;" style="text;html=1;strokeColor=none;fillColor=none;align=center;verticalAlign=middle;whiteSpace=wrap;rounded=0;fontFamily=Courier New;fontSize=48;fontColor=#009900;" parent="1" vertex="1">
                    <mxGeometry x="353" y="180" width="24" height="30" as="geometry"/>
                </mxCell>
                <mxCell id="9" value="&lt;font style=&quot;font-size: 20px&quot; face=&quot;Comic Sans MS&quot;&gt;-6&lt;/font&gt;" style="text;html=1;strokeColor=none;fillColor=none;align=center;verticalAlign=middle;whiteSpace=wrap;rounded=0;fontFamily=Courier New;fontSize=48;fontColor=#009900;" parent="1" vertex="1">
                    <mxGeometry x="409" y="180" width="24" height="30" as="geometry"/>
                </mxCell>
                <mxCell id="10" value="&lt;font style=&quot;font-size: 20px&quot; face=&quot;Comic Sans MS&quot;&gt;-5&lt;/font&gt;" style="text;html=1;strokeColor=none;fillColor=none;align=center;verticalAlign=middle;whiteSpace=wrap;rounded=0;fontFamily=Courier New;fontSize=48;fontColor=#009900;" parent="1" vertex="1">
                    <mxGeometry x="469" y="180" width="24" height="30" as="geometry"/>
                </mxCell>
                <mxCell id="11" value="&lt;font style=&quot;font-size: 20px&quot; face=&quot;Comic Sans MS&quot;&gt;-4&lt;/font&gt;" style="text;html=1;strokeColor=none;fillColor=none;align=center;verticalAlign=middle;whiteSpace=wrap;rounded=0;fontFamily=Courier New;fontSize=48;fontColor=#009900;" parent="1" vertex="1">
                    <mxGeometry x="530" y="180" width="24" height="30" as="geometry"/>
                </mxCell>
                <mxCell id="12" value="&lt;font style=&quot;font-size: 20px&quot; face=&quot;Comic Sans MS&quot;&gt;-3&lt;/font&gt;" style="text;html=1;strokeColor=none;fillColor=none;align=center;verticalAlign=middle;whiteSpace=wrap;rounded=0;fontFamily=Courier New;fontSize=48;fontColor=#009900;" parent="1" vertex="1">
                    <mxGeometry x="590" y="180" width="24" height="30" as="geometry"/>
                </mxCell>
                <mxCell id="13" value="&lt;font style=&quot;font-size: 20px&quot; face=&quot;Comic Sans MS&quot;&gt;-2&lt;/font&gt;" style="text;html=1;strokeColor=none;fillColor=none;align=center;verticalAlign=middle;whiteSpace=wrap;rounded=0;fontFamily=Courier New;fontSize=48;fontColor=#009900;" parent="1" vertex="1">
                    <mxGeometry x="650" y="180" width="24" height="30" as="geometry"/>
                </mxCell>
                <mxCell id="14" value="&lt;font style=&quot;font-size: 20px&quot; face=&quot;Comic Sans MS&quot;&gt;-1&lt;/font&gt;" style="text;html=1;strokeColor=none;fillColor=none;align=center;verticalAlign=middle;whiteSpace=wrap;rounded=0;fontFamily=Courier New;fontSize=48;fontColor=#009900;" parent="1" vertex="1">
                    <mxGeometry x="704" y="180" width="24" height="30" as="geometry"/>
                </mxCell>
                <mxCell id="15" value="&lt;font style=&quot;font-size: 20px&quot; face=&quot;Comic Sans MS&quot; color=&quot;#3333ff&quot;&gt;1&lt;/font&gt;" style="text;html=1;strokeColor=none;fillColor=none;align=center;verticalAlign=middle;whiteSpace=wrap;rounded=0;fontFamily=Courier New;fontSize=48;" parent="1" vertex="1">
                    <mxGeometry x="240" y="140" width="24" height="30" as="geometry"/>
                </mxCell>
                <mxCell id="16" value="&lt;font style=&quot;font-size: 20px&quot; face=&quot;Comic Sans MS&quot; color=&quot;#3333ff&quot;&gt;2&lt;/font&gt;" style="text;html=1;strokeColor=none;fillColor=none;align=center;verticalAlign=middle;whiteSpace=wrap;rounded=0;fontFamily=Courier New;fontSize=48;" parent="1" vertex="1">
                    <mxGeometry x="300" y="140" width="24" height="30" as="geometry"/>
                </mxCell>
                <mxCell id="17" value="&lt;font style=&quot;font-size: 20px&quot; face=&quot;Comic Sans MS&quot; color=&quot;#3333ff&quot;&gt;3&lt;/font&gt;" style="text;html=1;strokeColor=none;fillColor=none;align=center;verticalAlign=middle;whiteSpace=wrap;rounded=0;fontFamily=Courier New;fontSize=48;" parent="1" vertex="1">
                    <mxGeometry x="357" y="140" width="24" height="30" as="geometry"/>
                </mxCell>
                <mxCell id="18" value="&lt;font style=&quot;font-size: 20px&quot; face=&quot;Comic Sans MS&quot; color=&quot;#3333ff&quot;&gt;4&lt;/font&gt;" style="text;html=1;strokeColor=none;fillColor=none;align=center;verticalAlign=middle;whiteSpace=wrap;rounded=0;fontFamily=Courier New;fontSize=48;" parent="1" vertex="1">
                    <mxGeometry x="412" y="140" width="24" height="30" as="geometry"/>
                </mxCell>
                <mxCell id="19" value="&lt;font style=&quot;font-size: 20px&quot; face=&quot;Comic Sans MS&quot; color=&quot;#3333ff&quot;&gt;5&lt;/font&gt;" style="text;html=1;strokeColor=none;fillColor=none;align=center;verticalAlign=middle;whiteSpace=wrap;rounded=0;fontFamily=Courier New;fontSize=48;" parent="1" vertex="1">
                    <mxGeometry x="472" y="140" width="24" height="30" as="geometry"/>
                </mxCell>
                <mxCell id="20" value="&lt;font style=&quot;font-size: 20px&quot; face=&quot;Comic Sans MS&quot; color=&quot;#3333ff&quot;&gt;6&lt;/font&gt;" style="text;html=1;strokeColor=none;fillColor=none;align=center;verticalAlign=middle;whiteSpace=wrap;rounded=0;fontFamily=Courier New;fontSize=48;" parent="1" vertex="1">
                    <mxGeometry x="533" y="140" width="24" height="30" as="geometry"/>
                </mxCell>
                <mxCell id="21" value="&lt;font style=&quot;font-size: 20px&quot; face=&quot;Comic Sans MS&quot; color=&quot;#3333ff&quot;&gt;7&lt;/font&gt;" style="text;html=1;strokeColor=none;fillColor=none;align=center;verticalAlign=middle;whiteSpace=wrap;rounded=0;fontFamily=Courier New;fontSize=48;" parent="1" vertex="1">
                    <mxGeometry x="592" y="140" width="24" height="30" as="geometry"/>
                </mxCell>
                <mxCell id="22" value="&lt;font style=&quot;font-size: 20px&quot; face=&quot;Comic Sans MS&quot; color=&quot;#3333ff&quot;&gt;8&lt;/font&gt;" style="text;html=1;strokeColor=none;fillColor=none;align=center;verticalAlign=middle;whiteSpace=wrap;rounded=0;fontFamily=Courier New;fontSize=48;" parent="1" vertex="1">
                    <mxGeometry x="650" y="140" width="24" height="30" as="geometry"/>
                </mxCell>
                <mxCell id="23" value="&lt;font style=&quot;font-size: 20px&quot; face=&quot;Comic Sans MS&quot; color=&quot;#3333ff&quot;&gt;9&lt;/font&gt;" style="text;html=1;strokeColor=none;fillColor=none;align=center;verticalAlign=middle;whiteSpace=wrap;rounded=0;fontFamily=Courier New;fontSize=48;" parent="1" vertex="1">
                    <mxGeometry x="704" y="140" width="24" height="30" as="geometry"/>
                </mxCell>
                <mxCell id="25" value="&lt;font color=&quot;#ff3333&quot;&gt;len=10&lt;/font&gt;" style="text;html=1;strokeColor=none;fillColor=none;align=center;verticalAlign=middle;whiteSpace=wrap;rounded=0;fontFamily=Comic Sans MS;fontSize=20;fontColor=#009900;" parent="1" vertex="1">
                    <mxGeometry x="80" y="147" width="60" height="30" as="geometry"/>
                </mxCell>
            </root>
        </mxGraphModel>
    </diagram>
</mxfile>